<svg xmlns="http://www.w3.org/2000/svg" viewBox="0 0 180 180" role="img" aria-label="Verseway">
  <defs>
    <linearGradient id="bg" x1="20" y1="16" x2="160" y2="164" gradientUnits="userSpaceOnUse">
      <stop stop-color="#34d399" />
      <stop stop-color="#10b981" />
      <stop offset="1" stop-color="#4f46e5" />
    </linearGradient>
  </defs>
  <rect width="180" height="180" rx="40" fill="url(#bg)" />
  <path
    fill="#fff"
    fill-opacity="0.95"
    d="M52 42h52c8 0 14 6 14 14v78c0 5-6 8-9 5l-26-17-26 17c-4 3-9-1-9-6V56c0-8 6-14 14-14Z"
  />
  <path
    fill="none"
    stroke="#fef3c7"
    stroke-width="7"
    stroke-linecap="round"
    d="M122 68c13 8 20 18 20 30s-7 22-20 30M122 68V56M122 128v12"
  />
  <circle cx="122" cy="98" r="8" fill="#fef3c7" />
</svg>
