<svg xmlns="http://www.w3.org/2000/svg" viewBox="0 0 32 32" role="img" aria-label="Verseway">
  <defs>
    <linearGradient id="bg" x1="4" y1="4" x2="28" y2="28" gradientUnits="userSpaceOnUse">
      <stop stop-color="#34d399" />
      <stop stop-color="#10b981" />
      <stop offset="1" stop-color="#4f46e5" />
    </linearGradient>
  </defs>
  <rect width="32" height="32" rx="8" fill="url(#bg)" />
  <path fill="#fff" fill-opacity="0.95" d="M16 7c-4.5 0-8 2.5-8 5.5v8c0 1.5 1.5 2.5 3.5 3 1 .5 2 .5 4.5.5s3.5 0 4.5-.5c2-.5 3.5-1.5 3.5-3V12.5c0-3-3.5-5.5-8-5.5Z" />
  <path fill="#10b981" fill-opacity="0.35" d="M16 7v19.5c-2.5 0-4.5-.5-4.5-.5V12.5c0-3 3.5-5.5 4.5-5.5Z" />
  <path fill="none" stroke="#e0e7ff" stroke-width="1" stroke-linecap="round" d="M11 14h4M11 16.5h5M11 19h3.5M21 14h-4M21 16.5h-5M21 19h-3.5" />
  <path fill="none" stroke="#c7d2fe" stroke-width="1.3" stroke-linecap="round" d="M18.5 20.5c2-1.5 3-3.5 3-5.5s-1-4-3-5.5" />
  <circle cx="21" cy="15.5" r="1.25" fill="#fef9c3" />
</svg>
