<svg xmlns="http://www.w3.org/2000/svg" viewBox="0 0 32 32" role="img" aria-label="Verseway">
  <defs>
    <linearGradient id="bg" x1="4" y1="2" x2="28" y2="30" gradientUnits="userSpaceOnUse">
      <stop stop-color="#34d399" />
      <stop stop-color="#10b981" />
      <stop offset="1" stop-color="#4f46e5" />
    </linearGradient>
  </defs>
  <rect width="32" height="32" rx="8" fill="url(#bg)" />
  <path
    fill="#fff"
    fill-opacity="0.95"
    d="M10 7.5h9.2c1.4 0 2.5 1.1 2.5 2.5v12.8c0 .9-1 .4-1.3-.2L15.6 20l-4.8 3.1c-.7.5-1.6-.1-1.6-.9V10c0-1.4 1.1-2.5 2.5-2.5Z"
  />
  <path
    fill="none"
    stroke="#fef3c7"
    stroke-width="1.6"
    stroke-linecap="round"
    d="M21 11.5c2.2 1.4 3.5 3.2 3.5 5.2s-1.3 3.8-3.5 5.2M21 11.5V9M21 21.9v2.5"
  />
  <circle cx="21" cy="16.7" r="1.35" fill="#fef3c7" />
</svg>
