<svg xmlns="http://www.w3.org/2000/svg" width="1200" height="630" viewBox="0 0 1200 630" role="img" aria-label="Verseway  Walk Scripture. Remember it.">
  <defs>
    <linearGradient id="sky" x1="0" y1="0" x2="1200" y2="630" gradientUnits="userSpaceOnUse">
      <stop stop-color="#ecfdf5" />
      <stop offset="0.45" stop-color="#eef2ff" />
      <stop offset="1" stop-color="#e0e7ff" />
    </linearGradient>
    <linearGradient id="mark" x1="120" y1="80" x2="360" y2="360" gradientUnits="userSpaceOnUse">
      <stop stop-color="#34d399" />
      <stop stop-color="#10b981" />
      <stop offset="1" stop-color="#4f46e5" />
    </linearGradient>
    <filter id="shadow" x="-20%" y="-20%" width="140%" height="140%">
      <feDropShadow dx="0" dy="12" stdDeviation="18" flood-color="#312e81" flood-opacity="0.18" />
    </filter>
  </defs>
  <rect width="1200" height="630" fill="url(#sky)" />
  <circle cx="150" cy="120" r="220" fill="#a7f3d0" opacity="0.35" />
  <circle cx="1080" cy="520" r="260" fill="#c7d2fe" opacity="0.45" />
  <g filter="url(#shadow)">
    <rect x="120" y="155" width="220" height="220" rx="48" fill="url(#mark)" />
    <path
      fill="#fff"
      fill-opacity="0.96"
      d="M175 205h72c11 0 20 9 20 20v98c0 7-8 11-13 6l-36-24-36 24c-5 4-13-1-13-8V225c0-11 9-20 20-20Z"
    />
    <path
      fill="none"
      stroke="#fef3c7"
      stroke-width="8"
      stroke-linecap="round"
      d="M355 250c18 12 28 27 28 44s-10 32-28 44M355 250v-22M355 338v22"
    />
    <circle cx="355" cy="294" r="10" fill="#fef3c7" />
  </g>
  <text
    x="420"
    y="250"
    font-family="Georgia, 'Times New Roman', serif"
    font-size="88"
    font-weight="700"
    fill="#1e1b4b"
  >
    Verseway
  </text>
  <text x="420" y="320" font-family="system-ui, sans-serif" font-size="36" font-weight="700" fill="#10b981">
    Walk Scripture ť remember it
  </text>
  <text x="420" y="390" font-family="system-ui, sans-serif" font-size="28" fill="#475569">
    Read a chapter ť pass the memory check ť unlock the path
  </text>
  <text x="420" y="450" font-family="system-ui, sans-serif" font-size="22" font-weight="700" fill="#6366f1">
    Genesis ? Revelation · free on your device
  </text>
</svg>
