<svg xmlns="http://www.w3.org/2000/svg" width="1200" height="630" viewBox="0 0 1200 630" role="img" aria-label="Verseway — Walk Scripture. Remember it.">
  <defs>
    <linearGradient id="sky" x1="0" y1="0" x2="1200" y2="630" gradientUnits="userSpaceOnUse">
      <stop stop-color="#ecfdf5" />
      <stop offset="0.5" stop-color="#eef2ff" />
      <stop offset="1" stop-color="#e0e7ff" />
    </linearGradient>
    <linearGradient id="mark" x1="140" y1="120" x2="380" y2="360" gradientUnits="userSpaceOnUse">
      <stop stop-color="#34d399" />
      <stop stop-color="#10b981" />
      <stop offset="1" stop-color="#4f46e5" />
    </linearGradient>
    <filter id="shadow" x="-20%" y="-20%" width="140%" height="140%">
      <feDropShadow dx="0" dy="14" stdDeviation="20" flood-color="#312e81" flood-opacity="0.2" />
    </filter>
  </defs>
  <rect width="1200" height="630" fill="url(#sky)" />
  <circle cx="180" cy="100" r="200" fill="#6ee7b7" opacity="0.25" />
  <circle cx="1020" cy="540" r="240" fill="#a5b4fc" opacity="0.3" />
  <g filter="url(#shadow)">
    <rect x="150" y="165" width="240" height="240" rx="52" fill="url(#mark)" />
    <path fill="#fff" fill-opacity="0.96" d="M270 195c-34 0-60 19-60 42v62c0 11 11 19 27 22 8 3 15 3 33 3s25 0 33-3c16-3 27-11 27-22v-62c0-23-26-42-60-42Z" />
    <path fill="#10b981" fill-opacity="0.32" d="M270 195v129c-19 0-33-4-33-4v-67c0-23 26-42 33-42Z" />
    <path fill="none" stroke="#e0e7ff" stroke-width="3" stroke-linecap="round" d="M195 255h28M195 278h36M195 301h24M345 255h-28M345 278h-36M345 301h-24" />
    <path fill="none" stroke="#c7d2fe" stroke-width="5" stroke-linecap="round" d="M318 320c14-10 22-24 22-40s-8-30-22-40" />
    <circle cx="352" cy="258" r="9" fill="#fef9c3" />
  </g>
  <text x="430" y="255" font-family="Georgia, serif" font-size="88" font-weight="700" fill="#1e1b4b">Verseway</text>
  <text x="430" y="325" font-family="system-ui, sans-serif" font-size="36" font-weight="700" fill="#10b981">Walk Scripture · remember it</text>
  <text x="430" y="390" font-family="system-ui, sans-serif" font-size="28" fill="#475569">Read a chapter ? memory check ? unlock the path</text>
  <text x="430" y="450" font-family="system-ui, sans-serif" font-size="22" font-weight="700" fill="#4f46e5">Genesis ? Revelation · on your device</text>
</svg>
